<?xml version="1.0" encoding="UTF-8"?>
<svg id="Calque_1" xmlns="http://www.w3.org/2000/svg" xmlns:xlink="http://www.w3.org/1999/xlink" version="1.1" viewBox="0 0 200 200">
  <!-- Generator: Adobe Illustrator 30.1.0, SVG Export Plug-In . SVG Version: 2.1.1 Build 136)  -->
  <defs>
    <style>
      .st0 {
        fill: none;
      }

      .st1 {
        fill: #1d1d1b;
      }

      .st2 {
        clip-path: url(#clippath-1);
      }

      .st3 {
        clip-path: url(#clippath);
      }
    </style>
    <clipPath id="clippath">
      <rect class="st0" y="0" width="200" height="200"/>
    </clipPath>
    <clipPath id="clippath-1">
      <rect class="st0" y="0" width="200" height="200"/>
    </clipPath>
  </defs>
  <g class="st3">
    <g class="st2">
      <path class="st1" d="M83.38,75.35l-13.56-13.22c-.08-.08-.2-.19-.11-.45.08-.26.24-.29.36-.31l20.41-2.97,9.13-18.5c.05-.1.12-.25.4-.25s.35.14.4.25l8.33,16.87,8.04-11.36-5.4-10.92c-2.15-4.36-6.5-7.07-11.37-7.07s-9.22,2.71-11.37,7.07l-6.28,12.73-14.05,2.04c-4.81.7-8.73,4.01-10.23,8.63-1.5,4.62-.27,9.6,3.21,13l8.79,8.56,13.31-4.11Z"/>
      <path class="st1" d="M141.94,57.89c-.56-1.72-1.46-3.27-2.62-4.56-1.94-2.17-4.6-3.63-7.62-4.07l-12.39-1.8-7.93,11.21,18.57,2.7c.11.02.27.04.36.3.08.26-.03.37-.11.45l-1.68,1.64-13.1,12.76,3.49,20.33c.03.18,0,.25-.08.34-.1.11-.25.2-.36.2-.02,0-.08,0-.21-.07l-2.85-1.49,14.04,7.44c1.47-2.53,2.02-5.53,1.51-8.48l-2.4-13.99,10.17-9.91c3.48-3.39,4.71-8.37,3.21-12.99"/>
      <path class="st1" d="M115.42,95.83l-15.41-8.11-18.26,9.6s-.04.02-.06.03c-.09.03-.13.04-.15.04-.12,0-.27-.08-.36-.19-.07-.09-.1-.16-.07-.34l3.15-18.37-13.11,4.05-2.1,12.25c-.5,2.94.03,5.9,1.48,8.42.37.66.81,1.28,1.3,1.87,2.43,2.89,5.98,4.54,9.72,4.54,2.06,0,4.04-.49,5.9-1.47l12.57-6.61,12.57,6.61c1.85.97,3.84,1.47,5.9,1.47,3.74,0,7.28-1.65,9.72-4.54.48-.57.9-1.17,1.27-1.81l-14.04-7.44Z"/>
      <path class="st1" d="M27.43,136.44v-7.89c0-1.58.95-2.98,2.42-3.56.46-.17.93-.27,1.42-.27,1.04,0,2.06.44,2.78,1.21l2.72,2.91,2.73-2.86c.72-.78,1.74-1.23,2.79-1.23.48,0,.95.09,1.41.27,1.47.58,2.42,1.98,2.42,3.56v8.53h-2.63v-8.53c0-.73-.53-1.02-.76-1.11-.1-.04-.26-.09-.46-.09-.32,0-.61.13-.85.39l-4.66,5.01-4.65-5.05c-.24-.25-.53-.38-.85-.38-.2,0-.36.05-.46.09-.23.09-.75.38-.75,1.11v8.78l-2.64-.89Z"/>
      <path class="st1" d="M57.77,131.3c0,2.11-1.58,3.77-3.59,3.77s-3.65-1.63-3.65-3.63c0-2.1,1.6-3.75,3.65-3.75.9,0,1.81.38,2.5,1.03.75.71,1.09,1.53,1.09,2.58M54.18,125.35c-3.34,0-6.05,2.73-6.05,6.09s2.72,5.97,6.05,5.97,5.99-2.74,5.99-6.11-2.74-5.96-5.99-5.96"/>
      <path class="st1" d="M67.36,125.52c-1.09,0-2.31.55-2.99,1.27v-1.04h-2.32v11.58h2.4v-5.79c.02-.79-.01-1.91.43-2.5.47-.67,1.44-1.16,2.31-1.16.96,0,1.76.4,2.28,1.13.44.61.53,1.31.53,2.24v6.07h2.4v-6.07c0-1.46-.19-2.67-1.08-3.8-1.03-1.23-2.36-1.94-3.96-1.94"/>
      <polygon class="st1" points="77.99 122.03 75.59 122.03 75.59 125.75 73.38 125.75 73.38 128.02 75.59 128.02 75.59 137.33 77.99 137.33 77.99 128.02 80.46 128.02 80.46 125.75 77.99 125.75 77.99 122.03"/>
      <path class="st1" d="M87.71,135.19c-1.01,0-1.97-.41-2.68-1.16-.69-.69-.99-1.49-.99-2.63,0-2.02,1.66-3.6,3.77-3.6s3.69,1.66,3.69,3.71-1.63,3.67-3.79,3.67M87.83,125.42c-1.39,0-2.67.47-3.69,1.26v-.99h-2.41v14.47l2.41.87v-4.74c1.02.79,2.3,1.26,3.69,1.26,3.35,0,6.07-2.72,6.07-6.07s-2.72-6.07-6.07-6.07"/>
      <polygon class="st1" points="109.75 123.01 109.75 137.33 112.15 137.33 112.15 122.03 109.75 123.01"/>
      <polygon class="st1" points="114.76 123.01 114.76 137.33 117.17 137.33 117.17 122.03 114.76 123.01"/>
      <rect class="st1" x="119.79" y="122.03" width="2.4" height="2.34"/>
      <rect class="st1" x="119.79" y="125.75" width="2.4" height="11.58"/>
      <path class="st1" d="M144.79,125.58c-.26-.03-.52-.05-.79-.05-1.13,0-2.57.35-3.67,1.28v-1.05h-2.4v11.56h2.4v-5.86c0-2.27,1.14-3.49,3.31-3.59l1.15-2.3Z"/>
      <path class="st1" d="M130.07,127.7c1.5,0,2.88.98,3.41,2.41h-6.91c.52-1.43,1.93-2.41,3.49-2.41M132.82,133.8c-.67.78-1.73,1.28-2.87,1.28-1.59,0-3.11-1.2-3.45-2.71h9.55v-.49c-.05-1.63-.3-2.98-1.36-4.29-1.17-1.42-2.86-2.24-4.64-2.24-3.37,0-6.01,2.65-6.01,6.03s2.66,6.03,6.05,6.03c1.91,0,3.76-1.02,4.87-2.57l-2.13-1.04Z"/>
      <path class="st1" d="M101.89,127.7c1.49,0,2.88.98,3.41,2.41h-6.91c.52-1.43,1.93-2.41,3.49-2.41M104.63,133.8c-.67.78-1.73,1.28-2.87,1.28-1.59,0-3.11-1.2-3.45-2.71h9.55v-.49c-.05-1.63-.3-2.98-1.36-4.29-1.17-1.42-2.86-2.24-4.64-2.24-3.37,0-6.01,2.65-6.01,6.03s2.66,6.03,6.05,6.03c1.91,0,3.76-1.02,4.87-2.57l-2.13-1.04Z"/>
      <path class="st1" d="M47.09,168.14v-7.89c0-1.58.95-2.98,2.42-3.56.46-.18.93-.27,1.42-.27,1.04,0,2.06.44,2.78,1.22l2.72,2.91,2.73-2.87c.72-.77,1.74-1.22,2.79-1.22.48,0,.95.09,1.41.27,1.47.58,2.42,1.97,2.42,3.56v8.53h-2.63v-8.53c0-.73-.53-1.02-.76-1.11-.1-.04-.26-.09-.46-.09-.32,0-.61.13-.85.39l-4.66,5.01-4.65-5.05c-.24-.25-.53-.38-.85-.38-.2,0-.36.05-.46.09-.23.09-.75.38-.75,1.11v8.78l-2.64-.89Z"/>
      <polygon class="st1" points="137.17 154.49 137.17 168.82 139.57 168.82 139.57 153.51 137.17 154.49"/>
      <path class="st1" d="M96.27,157.06c-.26-.03-.52-.05-.79-.05-1.13,0-2.57.35-3.67,1.28v-1.05h-2.4v11.56h2.4v-5.86c0-2.27,1.14-3.49,3.31-3.59l1.15-2.3Z"/>
      <polygon class="st1" points="85.08 153.52 82.68 153.52 82.68 157.25 80.47 157.25 80.47 159.51 82.68 159.51 82.68 168.83 85.08 168.83 85.08 159.51 87.55 159.51 87.55 157.25 85.08 157.25 85.08 153.52"/>
      <path class="st1" d="M101.87,159.36c.9,0,1.81.38,2.5,1.03.75.71,1.09,1.53,1.09,2.58,0,2.11-1.58,3.77-3.59,3.77s-3.65-1.63-3.65-3.63c0-2.1,1.6-3.75,3.65-3.75M101.87,157.01c-3.34,0-6.05,2.73-6.05,6.09s2.72,5.97,6.05,5.97,5.99-2.74,5.99-6.11-2.75-5.96-5.99-5.96"/>
      <path class="st1" d="M115.7,166.74c-1.01,0-1.97-.41-2.68-1.16-.69-.69-.99-1.49-.99-2.63,0-2.02,1.66-3.6,3.77-3.6s3.69,1.66,3.69,3.71-1.63,3.67-3.79,3.67M115.82,156.98c-1.39,0-2.67.47-3.69,1.26v-.99h-2.41v14.47l2.41.87v-4.74c1.02.79,2.3,1.26,3.69,1.26,3.35,0,6.07-2.72,6.07-6.07s-2.72-6.07-6.07-6.07"/>
      <path class="st1" d="M129.37,159.36c.9,0,1.81.38,2.5,1.03.74.71,1.09,1.53,1.09,2.58,0,2.11-1.58,3.77-3.59,3.77s-3.65-1.63-3.65-3.63c0-2.1,1.6-3.75,3.65-3.75M129.37,157.01c-3.34,0-6.05,2.73-6.05,6.09s2.72,5.97,6.05,5.97,5.99-2.74,5.99-6.11-2.75-5.96-5.99-5.96"/>
      <polygon class="st1" points="76.52 153.8 75.58 152.24 71.42 154.75 72.34 156.27 76.52 153.8"/>
      <path class="st1" d="M73.86,159.5c1.49,0,2.88.98,3.41,2.41h-6.91c.52-1.43,1.93-2.41,3.49-2.41M76.6,165.61c-.67.78-1.73,1.28-2.87,1.28-1.59,0-3.11-1.2-3.45-2.71h9.55v-.49c-.05-1.63-.3-2.98-1.36-4.29-1.17-1.42-2.86-2.24-4.64-2.24-3.37,0-6.01,2.65-6.01,6.03s2.66,6.03,6.05,6.03c1.91,0,3.76-1.02,4.87-2.57l-2.13-1.04Z"/>
      <path class="st1" d="M147.49,159.5c1.49,0,2.88.98,3.41,2.41h-6.91c.52-1.43,1.93-2.41,3.49-2.41M150.24,165.61c-.67.78-1.73,1.28-2.87,1.28-1.59,0-3.11-1.2-3.45-2.71h9.55v-.49c-.05-1.63-.3-2.98-1.36-4.29-1.17-1.42-2.86-2.24-4.64-2.24-3.37,0-6.01,2.65-6.01,6.03s2.66,6.03,6.05,6.03c1.91,0,3.76-1.02,4.87-2.57l-2.13-1.04Z"/>
      <path class="st1" d="M86.13,150.66v-4.81c0-.96.58-1.81,1.47-2.16.28-.11.57-.17.86-.17.64,0,1.25.27,1.7.74l1.66,1.77,1.67-1.75c.44-.47,1.06-.74,1.7-.74.29,0,.58.05.86.16.9.35,1.48,1.2,1.48,2.17v5.2h-1.6v-5.2c0-.45-.32-.62-.46-.68-.06-.02-.16-.05-.28-.05-.2,0-.37.08-.51.24l-2.84,3.05-2.83-3.07c-.14-.15-.32-.24-.51-.24-.12,0-.22.03-.28.05-.14.05-.46.23-.46.67v5.35l-1.6-.54Z"/>
      <path class="st1" d="M152.83,144.01c-.67,0-1.41.34-1.82.77v-.63h-1.41v7.04h1.46v-3.52c.01-.48,0-1.16.26-1.52.29-.4.88-.7,1.4-.7.59,0,1.07.24,1.39.69.27.37.32.8.32,1.36v3.69h1.46v-3.69c0-.89-.11-1.63-.66-2.31-.62-.75-1.43-1.18-2.41-1.18"/>
      <rect class="st1" x="116.33" y="141.87" width="1.46" height="1.43"/>
      <rect class="st1" x="116.33" y="144.14" width="1.46" height="7.05"/>
      <polygon class="st1" points="121.53 141.87 120.11 141.87 120.11 144.15 118.76 144.15 118.76 145.49 120.11 145.49 120.11 151.19 121.53 151.19 121.53 145.49 123.04 145.49 123.04 144.15 121.53 144.15 121.53 141.87"/>
      <path class="st1" d="M110.96,145.44c.61,0,1.19.24,1.62.7.41.41.6.9.6,1.59,0,1.22-1,2.17-2.28,2.17s-2.23-1-2.23-2.24.99-2.22,2.29-2.22M110.89,151.33c.84,0,1.61-.28,2.23-.76v.6h1.45v-8.74l-1.45-.53v2.86c-.62-.47-1.39-.76-2.23-.76-2.02,0-3.66,1.64-3.66,3.67s1.64,3.66,3.66,3.66"/>
      <polygon class="st1" points="101.12 142.54 101.68 143.46 104.22 141.96 103.65 141.02 101.12 142.54"/>
      <path class="st1" d="M102.6,145.43c.91,0,1.75.6,2.08,1.46h-4.2c.31-.87,1.17-1.46,2.12-1.46M104.27,149.14c-.41.48-1.05.77-1.74.77-.97,0-1.89-.73-2.09-1.64h5.8v-.3c-.03-.99-.18-1.81-.83-2.61-.71-.86-1.74-1.36-2.82-1.36-2.05,0-3.65,1.61-3.65,3.67s1.61,3.67,3.68,3.67c1.16,0,2.28-.62,2.96-1.57l-1.3-.63Z"/>
      <path class="st1" d="M127,145.43c.91,0,1.75.59,2.07,1.46h-4.19c.32-.87,1.17-1.46,2.12-1.46M128.67,149.13c-.41.48-1.05.77-1.74.77-.96,0-1.88-.73-2.09-1.64h5.79v-.3c-.03-.98-.18-1.81-.83-2.61-.71-.86-1.73-1.35-2.81-1.35-2.05,0-3.65,1.61-3.65,3.66s1.61,3.66,3.67,3.66c1.15,0,2.28-.62,2.95-1.56l-1.29-.63Z"/>
      <path class="st1" d="M144.49,149.95c-1.28,0-2.35-1.03-2.35-2.26s1.04-2.3,2.32-2.3,2.27,1.01,2.27,2.31c0,1.19-1.05,2.24-2.25,2.24M146.73,144.87c-.56-.54-1.38-.86-2.27-.86-1.08,0-2,.39-2.73,1.15-.66.69-1.01,1.56-1.01,2.47,0,1.01.41,1.93.71,2.24.82.94,1.93,1.47,3.06,1.47.9,0,1.72-.33,2.25-.87v.72h1.39v-7.03h-1.39v.71Z"/>
      <path class="st1" d="M140.98,144.01c-.16-.02-.32-.03-.48-.03-.69,0-1.57.21-2.24.78v-.64h-1.46v7.06h1.46v-3.58c0-1.38.7-2.13,2.03-2.19l.7-1.41Z"/>
      <path class="st1" d="M135.96,144.01c-.16-.02-.32-.03-.48-.03-.69,0-1.57.21-2.24.78v-.64h-1.46v7.06h1.46v-3.58c0-1.38.7-2.13,2.03-2.19l.7-1.41Z"/>
      <polygon class="st1" points="159.23 142.54 159.79 143.47 162.32 141.96 161.75 141.02 159.23 142.54"/>
      <path class="st1" d="M160.7,145.43c.91,0,1.75.59,2.07,1.46h-4.19c.32-.87,1.17-1.46,2.12-1.46M162.37,149.13c-.41.48-1.05.77-1.74.77-.96,0-1.88-.73-2.09-1.64h5.79v-.3c-.03-.98-.18-1.81-.83-2.61-.71-.86-1.73-1.35-2.81-1.35-2.05,0-3.65,1.61-3.65,3.66s1.61,3.66,3.67,3.66c1.15,0,2.27-.62,2.95-1.56l-1.29-.63Z"/>
      <path class="st1" d="M168.96,145.43c.91,0,1.75.59,2.07,1.46h-4.19c.32-.87,1.17-1.46,2.12-1.46M170.62,149.13c-.41.48-1.05.77-1.74.77-.96,0-1.88-.73-2.09-1.64h5.79v-.3c-.03-.98-.18-1.81-.83-2.61-.71-.86-1.73-1.35-2.81-1.35-2.05,0-3.65,1.61-3.65,3.66s1.61,3.66,3.67,3.66c1.15,0,2.27-.62,2.95-1.56l-1.29-.63Z"/>
    </g>
  </g>
</svg>